<svg width="158" height="40" viewBox="0 0 158 40" fill="none" xmlns="http://www.w3.org/2000/svg">
<path d="M0.66 15V0.999999H7.5C9.26 0.999999 10.58 1.33333 11.46 2C12.3533 2.66667 12.8 3.54667 12.8 4.64C12.8 5.37333 12.62 6.01333 12.26 6.56C11.9 7.09333 11.4067 7.50667 10.78 7.8C10.1533 8.09333 9.43333 8.24 8.62 8.24L9 7.42C9.88 7.42 10.66 7.56667 11.34 7.86C12.02 8.14 12.5467 8.56 12.92 9.12C13.3067 9.68 13.5 10.3667 13.5 11.18C13.5 12.38 13.0267 13.32 12.08 14C11.1333 14.6667 9.74 15 7.9 15H0.66ZM3.88 12.56H7.66C8.5 12.56 9.13333 12.4267 9.56 12.16C10 11.88 10.22 11.44 10.22 10.84C10.22 10.2533 10 9.82 9.56 9.54C9.13333 9.24667 8.5 9.1 7.66 9.1H3.64V6.74H7.1C7.88667 6.74 8.48667 6.60667 8.9 6.34C9.32667 6.06 9.54 5.64 9.54 5.08C9.54 4.53333 9.32667 4.12667 8.9 3.86C8.48667 3.58 7.88667 3.44 7.1 3.44H3.88V12.56ZM19.14 15V9.28L19.88 11.24L13.72 0.999999H17.16L21.88 8.86H19.9L24.64 0.999999H27.82L21.66 11.24L22.38 9.28V15H19.14ZM91.4803 15V0.999999H97.8403C99.3603 0.999999 100.7 1.29333 101.86 1.88C103.02 2.45333 103.927 3.26 104.58 4.3C105.234 5.34 105.56 6.57333 105.56 8C105.56 9.41333 105.234 10.6467 104.58 11.7C103.927 12.74 103.02 13.5533 101.86 14.14C100.7 14.7133 99.3603 15 97.8403 15H91.4803ZM94.7203 12.34H97.6803C98.6136 12.34 99.4203 12.1667 100.1 11.82C100.794 11.46 101.327 10.9533 101.7 10.3C102.087 9.64667 102.28 8.88 102.28 8C102.28 7.10667 102.087 6.34 101.7 5.7C101.327 5.04667 100.794 4.54667 100.1 4.2C99.4203 3.84 98.6136 3.66 97.6803 3.66H94.7203V12.34ZM108.004 15V0.999999H111.244V15H108.004ZM117.546 6.64H124.286V9.16H117.546V6.64ZM117.786 12.4H125.406V15H114.566V0.999999H125.146V3.6H117.786V12.4ZM134.744 15.24C133.638 15.24 132.618 15.0667 131.684 14.72C130.764 14.36 129.958 13.8533 129.264 13.2C128.584 12.5467 128.051 11.78 127.664 10.9C127.291 10.02 127.104 9.05333 127.104 8C127.104 6.94667 127.291 5.98 127.664 5.1C128.051 4.22 128.591 3.45333 129.284 2.8C129.978 2.14667 130.791 1.64667 131.724 1.3C132.658 0.939999 133.684 0.76 134.804 0.76C136.044 0.76 137.158 0.966666 138.144 1.38C139.144 1.79333 139.984 2.39333 140.664 3.18L138.584 5.1C138.078 4.56667 137.524 4.17333 136.924 3.92C136.324 3.65333 135.671 3.52 134.964 3.52C134.284 3.52 133.664 3.62667 133.104 3.84C132.544 4.05333 132.058 4.36 131.644 4.76C131.244 5.16 130.931 5.63333 130.704 6.18C130.491 6.72667 130.384 7.33333 130.384 8C130.384 8.65333 130.491 9.25333 130.704 9.8C130.931 10.3467 131.244 10.8267 131.644 11.24C132.058 11.64 132.538 11.9467 133.084 12.16C133.644 12.3733 134.258 12.48 134.924 12.48C135.564 12.48 136.184 12.38 136.784 12.18C137.398 11.9667 137.991 11.6133 138.564 11.12L140.404 13.46C139.644 14.0333 138.758 14.4733 137.744 14.78C136.744 15.0867 135.744 15.24 134.744 15.24ZM137.444 13.04V7.78H140.404V13.46L137.444 13.04ZM150.214 15.24C149.107 15.24 148.081 15.06 147.134 14.7C146.201 14.34 145.387 13.8333 144.694 13.18C144.014 12.5267 143.481 11.76 143.094 10.88C142.721 10 142.534 9.04 142.534 8C142.534 6.96 142.721 6 143.094 5.12C143.481 4.24 144.021 3.47333 144.714 2.82C145.407 2.16667 146.221 1.66 147.154 1.3C148.087 0.939999 149.101 0.76 150.194 0.76C151.301 0.76 152.314 0.939999 153.234 1.3C154.167 1.66 154.974 2.16667 155.654 2.82C156.347 3.47333 156.887 4.24 157.274 5.12C157.661 5.98667 157.854 6.94667 157.854 8C157.854 9.04 157.661 10.0067 157.274 10.9C156.887 11.78 156.347 12.5467 155.654 13.2C154.974 13.84 154.167 14.34 153.234 14.7C152.314 15.06 151.307 15.24 150.214 15.24ZM150.194 12.48C150.821 12.48 151.394 12.3733 151.914 12.16C152.447 11.9467 152.914 11.64 153.314 11.24C153.714 10.84 154.021 10.3667 154.234 9.82C154.461 9.27333 154.574 8.66667 154.574 8C154.574 7.33333 154.461 6.72667 154.234 6.18C154.021 5.63333 153.714 5.16 153.314 4.76C152.927 4.36 152.467 4.05333 151.934 3.84C151.401 3.62667 150.821 3.52 150.194 3.52C149.567 3.52 148.987 3.62667 148.454 3.84C147.934 4.05333 147.474 4.36 147.074 4.76C146.674 5.16 146.361 5.63333 146.134 6.18C145.921 6.72667 145.814 7.33333 145.814 8C145.814 8.65333 145.921 9.26 146.134 9.82C146.361 10.3667 146.667 10.84 147.054 11.24C147.454 11.64 147.921 11.9467 148.454 12.16C148.987 12.3733 149.567 12.48 150.194 12.48ZM3.64 30.64H10.38V33.16H3.64V30.64ZM3.88 36.4H11.5V39H0.66V25H11.24V27.6H3.88V36.4ZM20.778 39.24C19.698 39.24 18.6913 39.0667 17.758 38.72C16.838 38.36 16.038 37.8533 15.358 37.2C14.678 36.5467 14.1446 35.78 13.758 34.9C13.3846 34.02 13.198 33.0533 13.198 32C13.198 30.9467 13.3846 29.98 13.758 29.1C14.1446 28.22 14.678 27.4533 15.358 26.8C16.0513 26.1467 16.858 25.6467 17.778 25.3C18.698 24.94 19.7046 24.76 20.798 24.76C22.0113 24.76 23.1046 24.9733 24.078 25.4C25.0646 25.8133 25.8913 26.4267 26.558 27.24L24.478 29.16C23.998 28.6133 23.4646 28.2067 22.878 27.94C22.2913 27.66 21.6513 27.52 20.958 27.52C20.3046 27.52 19.7046 27.6267 19.158 27.84C18.6113 28.0533 18.138 28.36 17.738 28.76C17.338 29.16 17.0246 29.6333 16.798 30.18C16.5846 30.7267 16.478 31.3333 16.478 32C16.478 32.6667 16.5846 33.2733 16.798 33.82C17.0246 34.3667 17.338 34.84 17.738 35.24C18.138 35.64 18.6113 35.9467 19.158 36.16C19.7046 36.3733 20.3046 36.48 20.958 36.48C21.6513 36.48 22.2913 36.3467 22.878 36.08C23.4646 35.8 23.998 35.38 24.478 34.82L26.558 36.74C25.8913 37.5533 25.0646 38.1733 24.078 38.6C23.1046 39.0267 22.0046 39.24 20.778 39.24ZM38.3459 25H41.5859V39H38.3459V25ZM31.9859 39H28.7459V25H31.9859V39ZM38.5859 33.26H31.7459V30.52H38.5859V33.26ZM47.8783 30.64H54.6183V33.16H47.8783V30.64ZM48.1183 36.4H55.7383V39H44.8983V25H55.4783V27.6H48.1183V36.4ZM62.3209 39L56.2809 25H59.7809L65.0609 37.4H63.0009L68.3609 25H71.5809L65.5209 39H62.3209ZM70.4411 39L76.6811 25H79.8811L86.1411 39H82.7411L77.6211 26.64H78.9011L73.7611 39H70.4411ZM73.5611 36L74.4211 33.54H81.6211L82.5011 36H73.5611ZM87.5936 39V25H93.6536C94.9069 25 95.9869 25.2067 96.8936 25.62C97.8003 26.02 98.5003 26.6 98.9936 27.36C99.4869 28.12 99.7336 29.0267 99.7336 30.08C99.7336 31.12 99.4869 32.02 98.9936 32.78C98.5003 33.5267 97.8003 34.1 96.8936 34.5C95.9869 34.9 94.9069 35.1 93.6536 35.1H89.3936L90.8336 33.68V39H87.5936ZM96.4936 39L92.9936 33.92H96.4536L99.9936 39H96.4936ZM90.8336 34.04L89.3936 32.52H93.4736C94.4736 32.52 95.2203 32.3067 95.7136 31.88C96.2069 31.44 96.4536 30.84 96.4536 30.08C96.4536 29.3067 96.2069 28.7067 95.7136 28.28C95.2203 27.8533 94.4736 27.64 93.4736 27.64H89.3936L90.8336 26.1V34.04ZM102.301 39V25H108.361C109.614 25 110.694 25.2067 111.601 25.62C112.507 26.02 113.207 26.6 113.701 27.36C114.194 28.12 114.441 29.0267 114.441 30.08C114.441 31.12 114.194 32.02 113.701 32.78C113.207 33.5267 112.507 34.1 111.601 34.5C110.694 34.9 109.614 35.1 108.361 35.1H104.101L105.541 33.68V39H102.301ZM111.201 39L107.701 33.92H111.161L114.701 39H111.201ZM105.541 34.04L104.101 32.52H108.181C109.181 32.52 109.927 32.3067 110.421 31.88C110.914 31.44 111.161 30.84 111.161 30.08C111.161 29.3067 110.914 28.7067 110.421 28.28C109.927 27.8533 109.181 27.64 108.181 27.64H104.101L105.541 26.1V34.04ZM117.008 39V25H120.248V39H117.008ZM121.73 39L127.97 25H131.17L137.43 39H134.03L128.91 26.64H130.19L125.05 39H121.73ZM124.85 36L125.71 33.54H132.91L133.79 36H124.85ZM150.707 39.06C149.707 39.06 148.78 38.88 147.927 38.52C147.073 38.16 146.327 37.66 145.687 37.02C145.047 36.3667 144.547 35.6133 144.187 34.76C143.84 33.9067 143.667 32.9867 143.667 32C143.667 31.0133 143.847 30.0933 144.207 29.24C144.567 28.3867 145.067 27.64 145.707 27C146.347 26.3467 147.093 25.84 147.947 25.48C148.813 25.12 149.747 24.94 150.747 24.94C151.747 24.94 152.673 25.12 153.527 25.48C154.393 25.8267 155.14 26.32 155.767 26.96C156.407 27.6 156.9 28.3467 157.247 29.2C157.607 30.04 157.787 30.96 157.787 31.96C157.787 32.96 157.607 33.8933 157.247 34.76C156.887 35.6133 156.38 36.3667 155.727 37.02C155.087 37.66 154.34 38.16 153.487 38.52C152.633 38.88 151.707 39.06 150.707 39.06ZM150.707 37.76C151.52 37.76 152.273 37.6133 152.967 37.32C153.66 37.0133 154.267 36.6 154.787 36.08C155.307 35.56 155.707 34.9467 155.987 34.24C156.28 33.5333 156.427 32.7733 156.427 31.96C156.427 31.1467 156.28 30.3933 155.987 29.7C155.707 28.9933 155.313 28.3867 154.807 27.88C154.313 27.36 153.72 26.96 153.027 26.68C152.333 26.3867 151.573 26.24 150.747 26.24C149.933 26.24 149.173 26.3867 148.467 26.68C147.773 26.9733 147.167 27.3867 146.647 27.92C146.14 28.44 145.747 29.0467 145.467 29.74C145.187 30.4333 145.047 31.1867 145.047 32C145.047 32.8133 145.187 33.5733 145.467 34.28C145.747 34.9733 146.14 35.58 146.647 36.1C147.153 36.62 147.753 37.0267 148.447 37.32C149.14 37.6133 149.893 37.76 150.707 37.76ZM150.967 36.04C150.14 36.04 149.407 35.8733 148.767 35.54C148.127 35.1933 147.62 34.7133 147.247 34.1C146.887 33.4867 146.707 32.7867 146.707 32C146.707 31.2133 146.887 30.5133 147.247 29.9C147.62 29.2867 148.127 28.8133 148.767 28.48C149.407 28.1333 150.14 27.96 150.967 27.96C151.767 27.96 152.467 28.1333 153.067 28.48C153.667 28.8133 154.107 29.2733 154.387 29.86L152.587 30.92C152.387 30.5867 152.147 30.3467 151.867 30.2C151.6 30.0533 151.293 29.98 150.947 29.98C150.6 29.98 150.28 30.06 149.987 30.22C149.707 30.38 149.48 30.6133 149.307 30.92C149.133 31.2267 149.047 31.5867 149.047 32C149.047 32.4133 149.133 32.7733 149.307 33.08C149.48 33.3867 149.707 33.62 149.987 33.78C150.28 33.94 150.6 34.02 150.947 34.02C151.293 34.02 151.6 33.9467 151.867 33.8C152.147 33.6533 152.387 33.4133 152.587 33.08L154.387 34.12C154.107 34.7067 153.667 35.1733 153.067 35.52C152.467 35.8667 151.767 36.04 150.967 36.04Z" fill="#0D0D0D"/>
</svg>
