<svg width="47" height="47" viewBox="0 0 47 47" fill="none" xmlns="http://www.w3.org/2000/svg">
<path d="M9.625 14.9375L23.4375 31.9375M23.4375 14.9375L9.625 31.9375M37.25 11.75V20.25M37.25 20.25V30.875C34.0625 32.2924 27.6875 32.5283 27.6875 25.5625C27.6875 18.958 34.0625 18.8326 37.25 20.25ZM1.125 7.5C1.125 5.80924 1.79665 4.18774 2.99219 2.99219C4.18774 1.79665 5.80924 1.125 7.5 1.125H39.375C41.0658 1.125 42.6873 1.79665 43.8828 2.99219C45.0783 4.18774 45.75 5.80924 45.75 7.5V39.375C45.75 41.0658 45.0783 42.6873 43.8828 43.8828C42.6873 45.0783 41.0658 45.75 39.375 45.75H7.5C5.80924 45.75 4.18774 45.0783 2.99219 43.8828C1.79665 42.6873 1.125 41.0658 1.125 39.375V7.5Z" stroke="black" stroke-width="2" stroke-linejoin="round"/>
</svg>
