<svg width="47" height="47" viewBox="0 0 47 47" fill="none" xmlns="http://www.w3.org/2000/svg">
<path d="M33 19.1875V34.0625M11.75 34.0625L18.125 14.9375H20.25L26.625 34.0625M13.875 26.625H24.5M33 14.9375C32.7182 14.9375 32.448 14.8256 32.2487 14.6263C32.0494 14.427 31.9375 14.1568 31.9375 13.875C31.9375 13.5932 32.0494 13.323 32.2487 13.1237C32.448 12.9244 32.7182 12.8125 33 12.8125C33.2818 12.8125 33.552 12.9244 33.7513 13.1237C33.9506 13.323 34.0625 13.5932 34.0625 13.875C34.0625 14.1568 33.9506 14.427 33.7513 14.6263C33.552 14.8256 33.2818 14.9375 33 14.9375ZM1.125 7.5C1.125 5.80924 1.79665 4.18774 2.99219 2.99219C4.18774 1.79665 5.80924 1.125 7.5 1.125H39.375C41.0658 1.125 42.6873 1.79665 43.8828 2.99219C45.0783 4.18774 45.75 5.80924 45.75 7.5V39.375C45.75 41.0658 45.0783 42.6873 43.8828 43.8828C42.6873 45.0783 41.0658 45.75 39.375 45.75H7.5C5.80924 45.75 4.18774 45.0783 2.99219 43.8828C1.79665 42.6873 1.125 41.0658 1.125 39.375V7.5Z" stroke="black" stroke-width="2" stroke-linejoin="round"/>
</svg>
