<svg width="47" height="45" viewBox="0 0 47 45" fill="none" xmlns="http://www.w3.org/2000/svg">
<path d="M12.875 31.6875V23.5208M12.875 23.5208V13.3125H18.1875C19.5965 13.3125 20.9477 13.8503 21.944 14.8075C22.9403 15.7647 23.5 17.063 23.5 18.4167C23.5 19.7704 22.9403 21.0686 21.944 22.0259C20.9477 22.9831 19.5965 23.5208 18.1875 23.5208H12.875ZM37.3125 18.4167C33.6575 17.6204 28.8125 17.2284 28.8125 20.4583C28.8125 24.4457 36.25 23.5188 36.25 27.6042C36.25 31.6895 29.9132 30.5319 26.6875 29.6458M1.1875 7.1875C1.1875 5.56305 1.85915 4.00513 3.05469 2.85647C4.25024 1.70781 5.87174 1.0625 7.5625 1.0625H39.4375C41.1283 1.0625 42.7498 1.70781 43.9453 2.85647C45.1408 4.00513 45.8125 5.56305 45.8125 7.1875V37.8125C45.8125 39.437 45.1408 40.9949 43.9453 42.1435C42.7498 43.2922 41.1283 43.9375 39.4375 43.9375H7.5625C5.87174 43.9375 4.25024 43.2922 3.05469 42.1435C1.85915 40.9949 1.1875 39.437 1.1875 37.8125V7.1875Z" stroke="black" stroke-width="2" stroke-linejoin="round"/>
</svg>
