<svg width="46" height="47" viewBox="0 0 46 47" fill="none" xmlns="http://www.w3.org/2000/svg">
<path d="M23.0625 9.625H17.8014C15.4258 9.625 13.5 11.6726 13.5 14.2008V14.1985C13.5 16.7267 15.4236 18.7766 17.8014 18.7766H23.0625M23.0625 9.625V18.7766M23.0625 9.625H28.3236C30.6992 9.625 32.625 11.6726 32.625 14.2008V14.1985C32.625 16.7267 30.7014 18.7766 28.3236 18.7766H23.0625M23.0625 18.7766L18.2812 18.7766C15.64 18.7766 13.5 21.052 13.5 23.8603C13.5 26.6664 15.64 28.9441 18.2812 28.9441L23.0625 28.9441M23.0625 18.7766V28.9441M23.0625 28.9441H17.8014C15.4258 28.9441 13.5 30.9918 13.5 33.52C13.5 36.0459 15.4236 38.0958 17.8014 38.0958H18.2812C20.9204 38.0958 23.0625 35.8204 23.0625 33.012V28.9441ZM1 7.42857C1 5.72361 1.66224 4.08848 2.84104 2.88289C4.01984 1.67729 5.61864 1 7.28571 1H38.7143C40.3814 1 41.9802 1.67729 43.159 2.88289C44.3378 4.08848 45 5.72361 45 7.42857V39.5714C45 41.2764 44.3378 42.9115 43.159 44.1171C41.9802 45.3227 40.3814 46 38.7143 46H7.28571C5.61864 46 4.01984 45.3227 2.84104 44.1171C1.66224 42.9115 1 41.2764 1 39.5714V7.42857ZM32.625 23.8603C32.625 23.1927 32.5013 22.5317 32.261 21.9149C32.0208 21.2981 31.6686 20.7377 31.2246 20.2656C30.7806 19.7935 30.2535 19.4191 29.6735 19.1636C29.0934 18.9081 28.4716 18.7766 27.8438 18.7766C27.2159 18.7766 26.5941 18.9081 26.014 19.1636C25.434 19.4191 24.9069 19.7935 24.4629 20.2656C24.0189 20.7377 23.6667 21.2981 23.4265 21.9149C23.1862 22.5317 23.0625 23.1927 23.0625 23.8603C23.0625 25.2086 23.5662 26.5017 24.4629 27.4551C25.3596 28.4085 26.5757 28.9441 27.8438 28.9441C29.1118 28.9441 30.3279 28.4085 31.2246 27.4551C32.1213 26.5017 32.625 25.2086 32.625 23.8603Z" stroke="black" stroke-width="1.71429" stroke-linecap="round" stroke-linejoin="round"/>
</svg>
